<mxfile host="app.diagrams.net" modified="2023-12-19T12:29:55.071Z" agent="Mozilla/5.0 (Windows NT 10.0; Win64; x64) AppleWebKit/537.36 (KHTML, like Gecko) Chrome/120.0.0.0 Safari/537.36" etag="-syqvOUEzHmUYxJVNurD" version="22.1.11" type="github">
  <diagram name="Page-1" id="FAYloSDTTYDVObzhy5Y4">
    <mxGraphModel dx="931" dy="1872" grid="1" gridSize="10" guides="1" tooltips="1" connect="1" arrows="1" fold="1" page="1" pageScale="1" pageWidth="850" pageHeight="1100" background="#ffffff" math="0" shadow="0">
      <root>
        <mxCell id="0" />
        <mxCell id="1" parent="0" />
        <mxCell id="9Y4233KAPYm7z-ObnApz-1" value="" style="rounded=1;whiteSpace=wrap;html=1;strokeColor=#666666;fillColor=#f5f5f5;glass=0;shadow=0;fontColor=#333333;" parent="1" vertex="1">
          <mxGeometry x="190" y="-200" width="770" height="400" as="geometry" />
        </mxCell>
        <mxCell id="9Y4233KAPYm7z-ObnApz-2" value="" style="rounded=1;whiteSpace=wrap;html=1;fillColor=none;fontColor=#333333;strokeColor=#007FFF;dashed=1;dashPattern=8 8;strokeWidth=2;" parent="1" vertex="1">
          <mxGeometry x="210" y="-160" width="340" height="340" as="geometry" />
        </mxCell>
        <mxCell id="9Y4233KAPYm7z-ObnApz-4" value="&lt;font style=&quot;font-size: 11px;&quot;&gt;kube-apiserver&lt;/font&gt;" style="sketch=0;html=1;dashed=0;whitespace=wrap;fillColor=#2875E2;strokeColor=#ffffff;points=[[0.005,0.63,0],[0.1,0.2,0],[0.9,0.2,0],[0.5,0,0],[0.995,0.63,0],[0.72,0.99,0],[0.5,1,0],[0.28,0.99,0]];verticalLabelPosition=bottom;align=center;verticalAlign=top;shape=mxgraph.kubernetes.icon;prIcon=api;spacing=-6;fontSize=13;" parent="1" vertex="1">
          <mxGeometry x="332.5" y="-139" width="85" height="85" as="geometry" />
        </mxCell>
        <mxCell id="9Y4233KAPYm7z-ObnApz-5" value="&lt;font style=&quot;font-size: 11px;&quot;&gt;etcd&lt;/font&gt;" style="sketch=0;html=1;dashed=0;whitespace=wrap;fillColor=#2875E2;strokeColor=#ffffff;points=[[0.005,0.63,0],[0.1,0.2,0],[0.9,0.2,0],[0.5,0,0],[0.995,0.63,0],[0.72,0.99,0],[0.5,1,0],[0.28,0.99,0]];verticalLabelPosition=bottom;align=center;verticalAlign=top;shape=mxgraph.kubernetes.icon;prIcon=etcd;fontSize=13;spacing=-6;" parent="1" vertex="1">
          <mxGeometry x="220" y="20" width="85" height="85" as="geometry" />
        </mxCell>
        <mxCell id="9Y4233KAPYm7z-ObnApz-6" value="&lt;font style=&quot;font-size: 11px;&quot;&gt;kube-scheduler&lt;/font&gt;" style="sketch=0;html=1;dashed=0;whitespace=wrap;fillColor=#2875E2;strokeColor=#ffffff;points=[[0.005,0.63,0],[0.1,0.2,0],[0.9,0.2,0],[0.5,0,0],[0.995,0.63,0],[0.72,0.99,0],[0.5,1,0],[0.28,0.99,0]];verticalLabelPosition=bottom;align=center;verticalAlign=top;shape=mxgraph.kubernetes.icon;prIcon=sched;fontSize=13;spacing=-6;" parent="1" vertex="1">
          <mxGeometry x="337.5" y="20" width="85" height="85" as="geometry" />
        </mxCell>
        <mxCell id="9Y4233KAPYm7z-ObnApz-7" value="&lt;font style=&quot;font-size: 11px;&quot;&gt;kube-controller-manager&lt;/font&gt;" style="sketch=0;html=1;dashed=0;whitespace=wrap;fillColor=#2875E2;strokeColor=#ffffff;points=[[0.005,0.63,0],[0.1,0.2,0],[0.9,0.2,0],[0.5,0,0],[0.995,0.63,0],[0.72,0.99,0],[0.5,1,0],[0.28,0.99,0]];verticalLabelPosition=bottom;align=center;verticalAlign=top;shape=mxgraph.kubernetes.icon;prIcon=c_m;fontSize=13;spacing=-6;" parent="1" vertex="1">
          <mxGeometry x="450" y="20" width="85" height="85" as="geometry" />
        </mxCell>
        <mxCell id="9Y4233KAPYm7z-ObnApz-8" value="" style="endArrow=classic;html=1;rounded=0;exitX=0.147;exitY=0.835;exitDx=0;exitDy=0;exitPerimeter=0;entryX=0.706;entryY=0.129;entryDx=0;entryDy=0;entryPerimeter=0;" parent="1" source="9Y4233KAPYm7z-ObnApz-4" target="9Y4233KAPYm7z-ObnApz-5" edge="1">
          <mxGeometry width="50" height="50" relative="1" as="geometry">
            <mxPoint x="600" y="80" as="sourcePoint" />
            <mxPoint x="650" y="30" as="targetPoint" />
          </mxGeometry>
        </mxCell>
        <mxCell id="9Y4233KAPYm7z-ObnApz-9" value="" style="endArrow=classic;html=1;rounded=0;exitX=0.5;exitY=0.406;exitDx=0;exitDy=0;exitPerimeter=0;" parent="1" source="9Y4233KAPYm7z-ObnApz-2" target="9Y4233KAPYm7z-ObnApz-6" edge="1">
          <mxGeometry width="50" height="50" relative="1" as="geometry">
            <mxPoint x="375" y="-10" as="sourcePoint" />
            <mxPoint x="310" y="41" as="targetPoint" />
          </mxGeometry>
        </mxCell>
        <mxCell id="9Y4233KAPYm7z-ObnApz-10" value="" style="endArrow=classic;html=1;rounded=0;exitX=0.853;exitY=0.776;exitDx=0;exitDy=0;exitPerimeter=0;entryX=0.312;entryY=0.106;entryDx=0;entryDy=0;entryPerimeter=0;" parent="1" source="9Y4233KAPYm7z-ObnApz-4" target="9Y4233KAPYm7z-ObnApz-7" edge="1">
          <mxGeometry width="50" height="50" relative="1" as="geometry">
            <mxPoint x="385" y="-10" as="sourcePoint" />
            <mxPoint x="385" y="30" as="targetPoint" />
          </mxGeometry>
        </mxCell>
        <mxCell id="9Y4233KAPYm7z-ObnApz-14" value="" style="endArrow=classic;html=1;rounded=0;exitX=0.5;exitY=1;exitDx=0;exitDy=0;exitPerimeter=0;" parent="1" target="9Y4233KAPYm7z-ObnApz-4" edge="1">
          <mxGeometry width="50" height="50" relative="1" as="geometry">
            <mxPoint x="375" y="-234.99999999999977" as="sourcePoint" />
            <mxPoint x="510" y="-270" as="targetPoint" />
          </mxGeometry>
        </mxCell>
        <mxCell id="9Y4233KAPYm7z-ObnApz-15" value="" style="endArrow=classic;html=1;rounded=0;entryX=0.944;entryY=0.425;entryDx=0;entryDy=0;entryPerimeter=0;" parent="1" target="9Y4233KAPYm7z-ObnApz-4" edge="1">
          <mxGeometry width="50" height="50" relative="1" as="geometry">
            <mxPoint x="924" y="-103" as="sourcePoint" />
            <mxPoint x="850" y="20" as="targetPoint" />
          </mxGeometry>
        </mxCell>
        <mxCell id="9Y4233KAPYm7z-ObnApz-33" value="&lt;font style=&quot;font-size: 16px;&quot;&gt;User&lt;/font&gt;" style="sketch=0;html=1;dashed=0;whitespace=wrap;fillColor=#FF0000;strokeColor=#ffffff;points=[[0.005,0.63,0],[0.1,0.2,0],[0.9,0.2,0],[0.5,0,0],[0.995,0.63,0],[0.72,0.99,0],[0.5,1,0],[0.28,0.99,0]];verticalLabelPosition=bottom;align=center;verticalAlign=top;shape=mxgraph.kubernetes.icon;prIcon=user;spacing=-4;" parent="1" vertex="1">
          <mxGeometry x="323.44000000000005" y="-360" width="103.13" height="99" as="geometry" />
        </mxCell>
        <mxCell id="9Y4233KAPYm7z-ObnApz-34" value="&lt;b&gt;Control Plane&lt;/b&gt;" style="text;html=1;strokeColor=none;fillColor=none;align=center;verticalAlign=middle;whiteSpace=wrap;rounded=0;" parent="1" vertex="1">
          <mxGeometry x="316.5" y="153" width="117" height="30" as="geometry" />
        </mxCell>
        <mxCell id="4K18NPuj7CFa846aqN2v-4" value="" style="rounded=0;whiteSpace=wrap;html=1;fillColor=#bac8d3;strokeColor=#23445d;" parent="1" vertex="1">
          <mxGeometry x="590" y="-90" width="310" height="253" as="geometry" />
        </mxCell>
        <mxCell id="4K18NPuj7CFa846aqN2v-17" value="&lt;b&gt;Node&lt;/b&gt;" style="text;html=1;strokeColor=none;fillColor=none;align=center;verticalAlign=middle;whiteSpace=wrap;rounded=0;" parent="1" vertex="1">
          <mxGeometry x="730" y="-90" width="60" height="30" as="geometry" />
        </mxCell>
        <mxCell id="4K18NPuj7CFa846aqN2v-19" value="kubelet" style="sketch=0;html=1;dashed=0;whitespace=wrap;fillColor=#2875E2;strokeColor=#ffffff;points=[[0.005,0.63,0],[0.1,0.2,0],[0.9,0.2,0],[0.5,0,0],[0.995,0.63,0],[0.72,0.99,0],[0.5,1,0],[0.28,0.99,0]];verticalLabelPosition=bottom;align=center;verticalAlign=top;shape=mxgraph.kubernetes.icon;prIcon=kubelet;spacing=-4;fontSize=11;" parent="1" vertex="1">
          <mxGeometry x="800" y="-32" width="70" height="70" as="geometry" />
        </mxCell>
        <mxCell id="4K18NPuj7CFa846aqN2v-20" value="k-proxy" style="sketch=0;html=1;dashed=0;whitespace=wrap;fillColor=#2875E2;strokeColor=#ffffff;points=[[0.005,0.63,0],[0.1,0.2,0],[0.9,0.2,0],[0.5,0,0],[0.995,0.63,0],[0.72,0.99,0],[0.5,1,0],[0.28,0.99,0]];verticalLabelPosition=bottom;align=center;verticalAlign=top;shape=mxgraph.kubernetes.icon;prIcon=k_proxy;fontSize=11;spacing=-4;" parent="1" vertex="1">
          <mxGeometry x="800" y="66" width="70" height="70" as="geometry" />
        </mxCell>
        <mxCell id="4K18NPuj7CFa846aqN2v-34" value="" style="endArrow=none;html=1;rounded=0;entryX=0.971;entryY=0.471;entryDx=0;entryDy=0;entryPerimeter=0;" parent="1" edge="1">
          <mxGeometry width="50" height="50" relative="1" as="geometry">
            <mxPoint x="924.03" y="-2.5599999999999454" as="sourcePoint" />
            <mxPoint x="865" y="-2.589999999999918" as="targetPoint" />
          </mxGeometry>
        </mxCell>
        <mxCell id="4K18NPuj7CFa846aqN2v-35" value="" style="endArrow=none;html=1;rounded=0;entryX=0.971;entryY=0.471;entryDx=0;entryDy=0;entryPerimeter=0;" parent="1" edge="1">
          <mxGeometry width="50" height="50" relative="1" as="geometry">
            <mxPoint x="924" y="98" as="sourcePoint" />
            <mxPoint x="865" y="98" as="targetPoint" />
          </mxGeometry>
        </mxCell>
        <mxCell id="4K18NPuj7CFa846aqN2v-36" value="" style="endArrow=none;html=1;rounded=0;jumpSize=9;" parent="1" edge="1">
          <mxGeometry width="50" height="50" relative="1" as="geometry">
            <mxPoint x="924" y="98" as="sourcePoint" />
            <mxPoint x="924" y="-104" as="targetPoint" />
          </mxGeometry>
        </mxCell>
        <mxCell id="CQpjlojAlUkrmzfvVUWV-9" value="" style="verticalLabelPosition=bottom;verticalAlign=top;html=1;shape=mxgraph.basic.polygon;polyCoords=[[0,0.25],[0.5,0],[1,0.25],[1,0.75],[0.5,1],[0,0.75],[0,0.25]];polyline=1;fillColor=default;perimeter=rectanglePerimeter;" parent="1" vertex="1">
          <mxGeometry x="610" y="-60" width="160" height="182.86" as="geometry" />
        </mxCell>
        <mxCell id="CQpjlojAlUkrmzfvVUWV-1" value="" style="image;sketch=0;aspect=fixed;html=1;points=[];align=center;fontSize=12;image=img/lib/mscae/Docker.svg;" parent="1" vertex="1">
          <mxGeometry x="665" y="101" width="50" height="41" as="geometry" />
        </mxCell>
        <mxCell id="CQpjlojAlUkrmzfvVUWV-12" value="" style="endArrow=none;dashed=1;html=1;rounded=0;entryX=1.007;entryY=0.394;entryDx=0;entryDy=0;entryPerimeter=0;exitX=0.005;exitY=0.63;exitDx=0;exitDy=0;exitPerimeter=0;" parent="1" source="4K18NPuj7CFa846aqN2v-19" target="CQpjlojAlUkrmzfvVUWV-9" edge="1">
          <mxGeometry width="50" height="50" relative="1" as="geometry">
            <mxPoint x="890" y="-22" as="sourcePoint" />
            <mxPoint x="940" y="-72" as="targetPoint" />
          </mxGeometry>
        </mxCell>
        <mxCell id="CQpjlojAlUkrmzfvVUWV-13" value="nginx" style="ellipse;whiteSpace=wrap;html=1;aspect=fixed;fillColor=#D5E8D4;" parent="1" vertex="1">
          <mxGeometry x="640" y="-7" width="40" height="40" as="geometry" />
        </mxCell>
        <mxCell id="CQpjlojAlUkrmzfvVUWV-14" value="nginx" style="ellipse;whiteSpace=wrap;html=1;aspect=fixed;fillColor=#D5E8D4;" parent="1" vertex="1">
          <mxGeometry x="670" y="43" width="40" height="40" as="geometry" />
        </mxCell>
        <mxCell id="CQpjlojAlUkrmzfvVUWV-15" value="nginx" style="ellipse;whiteSpace=wrap;html=1;aspect=fixed;fillColor=#D5E8D4;" parent="1" vertex="1">
          <mxGeometry x="700" y="-7" width="40" height="40" as="geometry" />
        </mxCell>
        <mxCell id="-EhpbD9sfLHaLdeywQvq-1" value="" style="rounded=0;whiteSpace=wrap;html=1;dashed=1;dashPattern=8 8;fillColor=none;" vertex="1" parent="1">
          <mxGeometry x="630" y="-20" width="120" height="106" as="geometry" />
        </mxCell>
        <mxCell id="-EhpbD9sfLHaLdeywQvq-2" value="ReplicaSet" style="text;html=1;strokeColor=none;fillColor=default;align=center;verticalAlign=middle;whiteSpace=wrap;rounded=0;" vertex="1" parent="1">
          <mxGeometry x="660" y="-26" width="60" height="13" as="geometry" />
        </mxCell>
      </root>
    </mxGraphModel>
  </diagram>
</mxfile>
